<svg enable-background="new 0 0 456 456" viewBox="0 0 456 456" xmlns="http://www.w3.org/2000/svg"><g fill="#fff"><path d="m315.1 125.3 14.3-17.5c3.4-4 3-9.9-.9-13.4l-11.5-9.6c-3.7-3.7-9.6-3.7-13.3 0-.3.3-.6.6-.8.9l-13.7 16.6c-12.4-7.8-26.4-12.9-40.9-15.1v-13h13.4c5.2 0 9.5-4.3 9.5-9.5v-15.3c0-5.2-4.3-9.5-9.5-9.5h-61.1c-5.2 0-9.5 4.3-9.5 9.5v15.3c0 5.2 4.3 9.5 9.5 9.5h13.4v12.9c-15.5 2.4-30.3 8.2-43.3 16.9l-14.7-18.3c-3.4-4-9.3-4.6-13.4-1.3l-11.5 9.7c-4 3.2-4.7 9.2-1.4 13.2 0 0 0 .1.1.1l15.6 19.4v.6c-37 47.2-28.8 115.5 18.4 152.6s115.5 28.8 152.6-18.4c31.5-40.2 30.8-96.8-1.7-136.2zm-4.5-30.5 8.8 7.2-12.1 14.8c-2.7-2.7-5.6-5.2-8.6-7.6zm-108-43.5h57.3v11.5h-57.3zm22.9 22.9h11.5v11.5c-1.9 0-3.8 0-5.7 0s-3.8 0-5.7 0v-11.5zm-86 27.8 8.9-7.2 13.2 16.1c-2.9 2.4-5.7 5-8.4 7.8zm91.7 189.8c-53.8 0-97.3-43.6-97.3-97.3s43.6-97.3 97.3-97.3 97.3 43.6 97.3 97.3-43.6 97.2-97.3 97.3z"/><path d="m231.2 111.4c-45.8.1-83 37.2-83 83 0 3.2 2.6 5.7 5.7 5.7h77.3c3.2 0 5.7-2.6 5.7-5.7v-77.3c0-3.1-2.5-5.7-5.7-5.7zm-5.7 77.3h-65.6c2.8-35 30.6-62.8 65.6-65.6z"/><path d="m101.1 395.1c-2.8-1.3-4.9-3-6.4-5.3s-2.2-4.9-2.2-7.9c0-2.5.5-4.8 1.6-6.9s2.5-3.7 4.3-4.9 3.8-1.8 6-1.8c2 0 3.7.5 5.1 1.5s2.2 2.4 2.6 4.2c-3 0-5.4.8-7.2 2.4s-2.7 3.7-2.7 6.4c0 2.5.7 4.5 2.2 6s3.5 2.2 6 2.2c3 0 5.6-1 7.6-3.1 2-2 3-4.6 3-7.7 0-2.7-.7-5.3-2.2-7.7s-3.7-5.4-6.7-8.8c-3.1-3.6-5.5-6.6-7-9.2-1.6-2.6-2.4-5.4-2.4-8.4s.8-5.7 2.5-8.1 4-4.3 6.9-5.7 6.2-2.1 9.9-2.1c4.7 0 8.4 1.1 11.2 3.3s4.2 5.1 4.2 8.8c0 2.4-.6 4.4-1.8 5.9s-2.8 2.2-4.7 2.2c-2.2 0-3.9-.9-5.3-2.7 1.1-.8 2-1.9 2.6-3.2s.9-2.7.9-4.1c0-1.8-.5-3.3-1.6-4.4s-2.6-1.6-4.5-1.6c-2.3 0-4.2.8-5.7 2.5-1.5 1.6-2.2 3.7-2.2 6.3 0 2.3.7 4.4 2 6.4s3.4 4.5 6.2 7.6c2.3 2.5 4.2 4.6 5.6 6.4s2.6 3.8 3.6 6.2c1 2.3 1.5 4.8 1.5 7.6 0 3.7-1 7-3.1 10-2 3-4.8 5.4-8.4 7.1-3.5 1.7-7.5 2.6-11.8 2.6-3.6-.1-6.8-.7-9.6-2z"/><path d="m140.3 393.8c-1.4-1.5-2.1-3.6-2.1-6.5 0-1.2.2-2.8.6-4.7l4.9-23.3h10.4l-5.2 24.7c-.1.7-.2 1.4-.2 2 0 2 .7 3 2.2 3 1.4 0 2.5-.6 3.5-1.7s1.7-2.7 2.3-4.7l4.9-23.3h10.4l-5.2 24.7c-.2.7-.3 1.5-.3 2.3 0 1 .2 1.7.7 2.1s1.2.6 2.3.6c1.4 0 2.5-.6 3.5-1.7 1-1.2 1.8-2.7 2.4-4.6h3c-1.8 5.2-4 8.8-6.6 10.6-2.6 1.9-5.3 2.8-7.9 2.8-2.1 0-3.7-.6-5-1.7-1.2-1.2-2-2.9-2.2-5.1-1.6 2.7-3.4 4.5-5.2 5.4-1.8 1-3.7 1.5-5.5 1.5-2.4-.3-4.3-1-5.7-2.4z"/><path d="m180.9 356.6h10.4l-1.2 5.4c2.4-2.1 5.2-3.1 8.5-3.1 2.7 0 4.9.9 6.5 2.7s2.4 4.7 2.4 8.8c0 3.8-.6 7.7-1.7 11.6s-3 7.2-5.7 9.9-6.2 4.1-10.5 4.1c-3.1 0-5.1-.9-6.2-2.6l-3.8 17.7-10.9 2.6zm12.3 29.8c1.5-2.2 2.6-4.8 3.3-7.8s1.1-5.8 1.1-8.4c0-4-1.2-6-3.6-6-.9 0-1.8.3-2.6.9-.9.6-1.7 1.5-2.4 2.6l-4.3 20.3c.4 1.1 1.3 1.7 2.8 1.7 2.2-.1 4.2-1.2 5.7-3.3z"/><path d="m211.3 393.1c-2-1.9-3-4.8-3-8.7 0-3.3.7-7 2-11s3.4-7.5 6.4-10.4c2.9-2.9 6.7-4.4 11.2-4.4 5.3 0 8 2.3 8 7 0 2.7-.8 5.2-2.3 7.5s-3.6 4.1-6.2 5.5-5.3 2.2-8.2 2.4c-.1 1.5-.1 2.4-.1 2.9 0 2.4.4 4 1.2 4.8s2.2 1.3 4 1.3c2.6 0 4.8-.6 6.7-1.8s3.9-3 6.1-5.5h2.5c-5.4 8.9-12 13.4-19.9 13.4-3.6-.2-6.4-1.1-8.4-3zm13.6-17.6c1.6-1.2 2.9-2.6 3.9-4.4s1.5-3.7 1.5-5.7-.6-3-1.8-3c-1.7 0-3.4 1.5-5.1 4.6-1.7 3-2.9 6.5-3.6 10.4 1.8-.1 3.5-.8 5.1-1.9z"/><path d="m242.1 359.2h10.4l-.9 4.5c1.6-1.4 3.1-2.6 4.5-3.3 1.3-.8 2.8-1.2 4.3-1.2s2.8.5 3.7 1.6 1.3 2.3 1.3 3.8c0 1.4-.5 2.6-1.4 3.7s-2.2 1.6-3.8 1.6c-1.1 0-1.8-.3-2.1-.8-.4-.5-.6-1.2-.8-2.2-.1-.6-.3-1.1-.4-1.4s-.4-.4-.8-.4c-1 0-1.9.2-2.6.6s-1.6 1.1-2.7 2.1l-5.8 27.6h-10.4z"/><path d="m268.7 395.1c-2.8-1.3-4.9-3-6.4-5.3s-2.2-4.9-2.2-7.9c0-2.5.5-4.8 1.6-6.9s2.5-3.7 4.3-4.9 3.8-1.8 6-1.8c2 0 3.7.5 5.1 1.5s2.2 2.4 2.6 4.2c-3 0-5.4.8-7.2 2.4s-2.7 3.7-2.7 6.4c0 2.5.7 4.5 2.2 6s3.5 2.2 6 2.2c3 0 5.6-1 7.6-3.1 2-2 3-4.6 3-7.7 0-2.7-.7-5.3-2.2-7.7s-3.7-5.4-6.7-8.8c-3.1-3.6-5.5-6.6-7-9.2-1.6-2.6-2.4-5.4-2.4-8.4s.8-5.7 2.5-8.1 4-4.3 6.9-5.7 6.2-2.1 9.9-2.1c4.7 0 8.4 1.1 11.2 3.3s4.2 5.1 4.2 8.8c0 2.4-.6 4.4-1.8 5.9s-2.8 2.2-4.7 2.2c-2.2 0-3.9-.9-5.3-2.7 1.1-.8 2-1.9 2.6-3.2s.9-2.7.9-4.1c0-1.8-.5-3.3-1.6-4.4s-2.6-1.6-4.5-1.6c-2.3 0-4.2.8-5.7 2.5-1.5 1.6-2.2 3.7-2.2 6.3 0 2.3.7 4.4 2 6.4s3.4 4.5 6.2 7.6c2.3 2.5 4.2 4.6 5.6 6.4s2.6 3.8 3.6 6.2c1 2.3 1.5 4.8 1.5 7.6 0 3.7-1 7-3.1 10-2 3-4.8 5.4-8.4 7.1-3.5 1.7-7.5 2.6-11.8 2.6-3.6-.1-6.8-.7-9.6-2z"/><path d="m307.9 393.8c-1.4-1.5-2.1-3.6-2.1-6.5 0-1.2.2-2.8.6-4.7l4.9-23.3h10.4l-5.2 24.7c-.1.7-.2 1.4-.2 2 0 2 .7 3 2.2 3 1.4 0 2.5-.6 3.5-1.7s1.7-2.7 2.3-4.7l4.9-23.3h10.4l-5.2 24.7c-.2.7-.3 1.5-.3 2.3 0 1 .2 1.7.7 2.1s1.2.6 2.3.6c1.4 0 2.5-.6 3.5-1.7 1-1.2 1.8-2.7 2.4-4.6h3c-1.8 5.2-4 8.8-6.6 10.6-2.6 1.9-5.3 2.8-7.9 2.8-2.1 0-3.7-.6-5-1.7-1.2-1.2-2-2.9-2.2-5.1-1.6 2.7-3.4 4.5-5.2 5.4-1.8 1-3.7 1.5-5.5 1.5-2.4-.3-4.2-1-5.7-2.4z"/><path d="m345.1 393.5c-1.7-1.6-2.6-3.9-2.6-6.9 0-1.5.2-2.8.5-4.1l7.8-36.3 10.7-1.4-3.5 16.3c1.4-.8 2.5-1.4 3.3-1.6.9-.3 1.7-.4 2.6-.4 5.7 0 8.6 4.1 8.6 12.4 0 3.3-.6 6.9-1.9 10.7s-3.4 7-6.4 9.8c-3 2.7-6.8 4.1-11.6 4.1-3.3-.2-5.8-1-7.5-2.6zm15.8-7.4c1.3-1.9 2.3-4.2 3.1-7s1.2-5.4 1.2-8c0-1.9-.3-3.6-1-4.9-.7-1.4-1.6-2-2.8-2-.7 0-1.5.1-2.4.3s-1.5.5-1.8 1l-4 18.4c-.1.6-.2 1.1-.2 1.7 0 2.2 1.3 3.3 3.8 3.3 1.4 0 2.8-.9 4.1-2.8z"/></g><path d="m216.6 410.6h3.5l-7.3 17.2h-3.1l-3.1-7.8-3.1 7.8h-3.1l-7.3-17.2h3.5l5.6 13.7 2.5-6.4-3-7.3h3.1l2 5.4 1.9-5.4h3.1l-3 7.3 2.5 6.4z"/><path d="m222.5 407.6v-4h3.7v4zm0 20.2v-17.4h3.7v17.4z"/><path d="m236.8 428.1c-1.5 0-2.8-.2-4.2-.7-1.3-.5-2.4-1.2-3.4-2.1l1.4-2.5c1 .9 2 1.5 3 1.9s2 .6 3 .6 1.8-.2 2.5-.6c.6-.4 1-.9 1-1.7 0-.5-.2-1-.5-1.2-.3-.3-.8-.5-1.4-.7s-1.4-.4-2.3-.7c-1.2-.4-2.3-.8-3.1-1.2s-1.5-.9-1.9-1.5-.6-1.3-.6-2.3c0-1.1.3-2.1.9-2.9s1.4-1.4 2.4-1.8 2.2-.6 3.6-.6c1.3 0 2.4.2 3.5.6s2 1 2.8 1.8l-1.6 2.4c-.8-.7-1.6-1.2-2.4-1.6-.8-.3-1.7-.5-2.6-.5-.5 0-1 .1-1.5.2s-.9.3-1.2.7c-.3.3-.5.8-.5 1.3s.1.8.4 1.1.7.5 1.2.7 1.2.4 2 .7c1.4.4 2.5.8 3.5 1.2s1.7.9 2.2 1.5.8 1.4.8 2.5c0 1.7-.6 3-1.9 3.9-1.4 1.1-3.1 1.5-5.1 1.5z"/><path d="m253.1 428.1c-1.5 0-2.8-.2-4.2-.7-1.3-.5-2.4-1.2-3.4-2.1l1.4-2.5c1 .9 2 1.5 3 1.9s2 .6 3 .6 1.8-.2 2.5-.6c.6-.4 1-.9 1-1.7 0-.5-.2-1-.5-1.2-.3-.3-.8-.5-1.4-.7s-1.4-.4-2.3-.7c-1.2-.4-2.3-.8-3.1-1.2s-1.5-.9-1.9-1.5-.6-1.3-.6-2.3c0-1.1.3-2.1.9-2.9s1.4-1.4 2.4-1.8 2.2-.6 3.6-.6c1.3 0 2.4.2 3.5.6s2 1 2.8 1.8l-1.6 2.4c-.8-.7-1.6-1.2-2.4-1.6-.8-.3-1.7-.5-2.6-.5-.5 0-1 .1-1.5.2s-.9.3-1.2.7c-.3.3-.5.8-.5 1.3s.1.8.4 1.1.7.5 1.2.7 1.2.4 2 .7c1.4.4 2.5.8 3.5 1.2s1.7.9 2.2 1.5.8 1.4.8 2.5c0 1.7-.6 3-1.9 3.9-1.4 1.1-3.1 1.5-5.1 1.5z"/><path d="m271.1 428.1c-1.4 0-2.6-.2-3.7-.7s-2-1.1-2.8-1.9-1.4-1.8-1.8-2.8c-.4-1.1-.6-2.2-.6-3.4 0-1.6.4-3.1 1.1-4.4.8-1.3 1.8-2.4 3.2-3.3 1.3-.8 2.9-1.2 4.7-1.2s3.4.4 4.7 1.2 2.3 1.9 3.1 3.2c.7 1.3 1.1 2.8 1.1 4.3v.7c0 .2 0 .4-.1.6h-13.9c.1 1 .3 1.9.8 2.6.5.8 1.1 1.3 1.9 1.8.8.4 1.6.6 2.5.6 1 0 1.9-.2 2.8-.7s1.5-1.1 1.8-1.9l3.1.9c-.4.8-.9 1.6-1.7 2.3s-1.7 1.2-2.7 1.6c-1.2.3-2.3.5-3.5.5zm-5.3-10.1h10.5c-.1-1-.3-1.8-.8-2.6-.5-.7-1.1-1.3-1.9-1.8-.8-.4-1.6-.6-2.5-.6s-1.7.2-2.5.6-1.4 1-1.9 1.8c-.5.7-.8 1.6-.9 2.6z"/><path d="m283 403.6h3.7v19.3c0 .9.1 1.5.4 1.7s.6.4 1 .4.9 0 1.2-.1.7-.2 1-.3l.5 2.9c-.5.2-1.2.4-1.9.6s-1.4.2-2 .2c-1.2 0-2.2-.3-2.9-1s-1.1-1.7-1.1-2.9v-20.8z"/><path d="m302.5 427c-.3.2-.7.3-1.2.5s-1 .3-1.6.5c-.6.1-1.2.2-1.8.2-.8 0-1.4-.1-2.1-.4-.6-.3-1.2-.7-1.5-1.3s-.6-1.3-.6-2.3v-10.8h-2.3v-2.8h2.3v-5.7h3.7v5.7h3.8v2.8h-3.8v9.6c0 .6.2 1 .6 1.3.3.3.8.4 1.3.4s1-.1 1.5-.3.8-.3 1-.4z"/><path d="m305 407.6v-4h3.7v4zm0 20.2v-17.4h3.7v17.4z"/><path d="m339.6 427.8h-3.6v-9.6c0-1.6-.3-2.8-.8-3.5s-1.3-1.1-2.3-1.1-2 .4-2.8 1.1c-.9.8-1.5 1.7-1.8 2.9v10.2h-3.7v-9.6c0-1.6-.3-2.8-.8-3.5s-1.3-1.1-2.3-1.1-2 .4-2.8 1.1c-.9.7-1.5 1.7-1.9 2.9v10.2h-3.7v-17.2h3.3v3.5c.7-1.2 1.6-2.1 2.7-2.8s2.4-1 3.8-1 2.6.4 3.4 1.1 1.3 1.7 1.5 2.8c.8-1.3 1.7-2.2 2.8-2.9s2.4-1 3.8-1c1 0 1.9.2 2.6.6s1.2.9 1.6 1.5.6 1.4.8 2.2.2 1.7.2 2.7z"/><path d="m351.7 428.1c-1.4 0-2.6-.2-3.7-.7s-2-1.1-2.8-1.9-1.4-1.8-1.8-2.8c-.4-1.1-.6-2.2-.6-3.4 0-1.6.4-3.1 1.1-4.4.8-1.3 1.8-2.4 3.2-3.3 1.3-.8 2.9-1.2 4.7-1.2s3.4.4 4.7 1.2 2.3 1.9 3.1 3.2c.7 1.3 1.1 2.8 1.1 4.3v.7c0 .2 0 .4-.1.6h-13.9c.1 1 .3 1.9.8 2.6.5.8 1.1 1.3 1.9 1.8.8.4 1.6.6 2.5.6 1 0 1.9-.2 2.8-.7s1.5-1.1 1.8-1.9l3.1.9c-.4.8-.9 1.6-1.7 2.3s-1.7 1.2-2.7 1.6c-1.1.3-2.3.5-3.5.5zm-5.2-10.1h10.5c-.1-1-.3-1.8-.8-2.6-.5-.7-1.1-1.3-1.9-1.8-.8-.4-1.6-.6-2.5-.6s-1.7.2-2.5.6-1.4 1-1.9 1.8c-.6.7-.8 1.6-.9 2.6z"/><path d="m373.4 413.6c-1.4 0-2.7.3-3.8 1-1.1.6-1.9 1.5-2.3 2.6v10.6h-3.7v-17.2h3.4v3.8c.6-1.2 1.4-2.2 2.4-2.9s2-1.1 3.1-1.2h.5.4z"/></svg>