<?xml version="1.0" encoding="UTF-8"?><svg xmlns="http://www.w3.org/2000/svg" viewBox="0 0 465.22 643.14"><defs><style>.d{fill:#fff;}</style></defs><g id="a"/><g id="b"><g id="c"><g><path class="d" d="M368.79,141.49l23.71-29.02c5.6-6.58,4.92-16.43-1.52-22.19l-18.97-15.93c-6.07-6.07-15.92-6.08-22,0-.48,.48-.92,.98-1.33,1.52l-22.76,27.5c-20.62-12.9-43.66-21.42-67.71-25.04v-21.43h22.19c8.69,0,15.74-7.05,15.74-15.74V15.74C296.15,7.05,289.1,0,280.4,0h-101.28c-8.69,0-15.74,7.05-15.74,15.74v25.42c0,8.69,7.05,15.74,15.74,15.74h22.19v21.43c-25.65,4.05-50.11,13.63-71.69,28.07l-24.47-30.54c-5.6-6.62-15.46-7.54-22.19-2.09l-18.97,16.12c-6.7,5.38-7.77,15.17-2.39,21.87,.04,.05,.07,.09,.11,.14l25.8,32.05v.95c-61.35,78.22-47.67,191.37,30.55,252.71,78.22,61.35,191.37,47.67,252.71-30.55,52.16-66.51,51.02-160.35-2.75-225.57h.76Zm-7.59-50.45l14.6,11.95-20.1,24.47c-4.52-4.42-9.27-8.6-14.23-12.52l19.73-23.9ZM182.34,18.97h94.83v18.97h-94.83V18.97Zm37.93,37.93h18.97v18.97h-18.97v-18.97ZM77.84,102.99l14.79-11.95,21.81,26.74c-4.84,4.05-9.46,8.35-13.85,12.9l-22.76-27.69ZM229.76,417.27c-89.04,0-161.22-72.18-161.22-161.22S140.72,94.83,229.76,94.83s161.22,72.18,161.22,161.22c-.1,89-72.22,161.11-161.22,161.22Z"/><path class="d" d="M229.76,118.54c-75.9,.1-137.41,61.61-137.51,137.51,0,5.24,4.25,9.48,9.48,9.48H229.76c5.24,0,9.48-4.25,9.48-9.48V128.03c0-5.24-4.25-9.48-9.48-9.48Zm-9.48,128.03H111.6c4.65-57.99,50.69-104.03,108.68-108.68v108.68Z"/></g><g><path class="d" d="M14.3,588.5c-4.58-2.1-8.1-5.03-10.58-8.79-2.48-3.77-3.72-8.13-3.72-13.08,0-4.19,.88-8.01,2.65-11.44,1.76-3.43,4.15-6.15,7.15-8.15,3-2,6.31-3,9.94-3,3.34,0,6.15,.84,8.44,2.5,2.29,1.67,3.72,3.98,4.29,6.94-4.96,0-8.92,1.31-11.87,3.93-2.96,2.62-4.43,6.17-4.43,10.65,0,4.1,1.24,7.39,3.72,9.87,2.48,2.48,5.77,3.72,9.87,3.72,5.05,0,9.22-1.69,12.51-5.08,3.29-3.38,4.93-7.65,4.93-12.8,0-4.48-1.24-8.72-3.72-12.73-2.48-4-6.2-8.87-11.15-14.59-5.15-5.91-9.03-10.99-11.65-15.23-2.62-4.24-3.93-8.89-3.93-13.94s1.38-9.41,4.15-13.37c2.76-3.96,6.58-7.08,11.44-9.37,4.86-2.29,10.34-3.43,16.44-3.43,7.72,0,13.89,1.81,18.52,5.43,4.62,3.62,6.94,8.49,6.94,14.59,0,4-1,7.25-3,9.72-2,2.48-4.63,3.72-7.87,3.72-3.62,0-6.53-1.48-8.72-4.43,1.81-1.33,3.24-3.1,4.29-5.29,1.05-2.19,1.57-4.48,1.57-6.86,0-3.05-.91-5.48-2.72-7.29-1.81-1.81-4.29-2.72-7.44-2.72-3.81,0-6.94,1.36-9.37,4.08s-3.65,6.17-3.65,10.37c0,3.81,1.09,7.36,3.29,10.65,2.19,3.29,5.62,7.51,10.3,12.66,3.81,4.1,6.89,7.63,9.22,10.58,2.33,2.96,4.34,6.36,6.01,10.22,1.67,3.86,2.5,8.03,2.5,12.51,0,6.1-1.69,11.63-5.08,16.59-3.38,4.96-8.01,8.87-13.87,11.73-5.86,2.86-12.37,4.29-19.52,4.29-6.01,0-11.3-1.05-15.87-3.15Z"/><path class="d" d="M79.23,586.19c-2.36-2.4-3.54-6-3.54-10.81,0-2,.32-4.6,.96-7.81l8.17-38.55h17.29l-8.65,40.83c-.24,1.2-.36,2.32-.36,3.36,0,3.28,1.2,4.92,3.6,4.92,2.24,0,4.16-.94,5.76-2.82,1.6-1.88,2.88-4.46,3.84-7.75l8.17-38.55h17.29l-8.65,40.83c-.32,1.2-.48,2.48-.48,3.84,0,1.6,.38,2.74,1.14,3.42,.76,.68,2.02,1.02,3.78,1.02,2.24,0,4.18-.96,5.82-2.88,1.64-1.92,2.94-4.48,3.9-7.69h5.04c-2.96,8.65-6.63,14.51-10.99,17.59-4.36,3.08-8.75,4.62-13.15,4.62-3.44,0-6.19-.96-8.23-2.88-2.04-1.92-3.26-4.76-3.66-8.53-2.72,4.4-5.58,7.41-8.59,9.01-3,1.6-6.06,2.4-9.19,2.4-3.84,0-6.95-1.2-9.31-3.6Z"/><path class="d" d="M146.42,524.58h17.29l-1.92,9.01c4-3.44,8.69-5.16,14.05-5.16,4.48,0,8.05,1.48,10.69,4.44,2.64,2.96,3.96,7.81,3.96,14.53,0,6.33-.92,12.71-2.76,19.16-1.84,6.45-4.96,11.93-9.37,16.45-4.4,4.52-10.21,6.79-17.41,6.79-5.12,0-8.53-1.44-10.21-4.32l-6.25,29.3-18.13,4.32,20.06-94.52Zm20.36,49.36c2.52-3.6,4.36-7.91,5.52-12.91,1.16-5,1.74-9.67,1.74-13.99,0-6.64-2-9.97-6-9.97-1.44,0-2.9,.52-4.38,1.56-1.48,1.04-2.78,2.48-3.9,4.32l-7.09,33.63c.64,1.84,2.16,2.76,4.56,2.76,3.84,0,7.03-1.8,9.55-5.4Z"/><path class="d" d="M196.86,585.17c-3.28-3.08-4.92-7.91-4.92-14.47,0-5.52,1.08-11.61,3.24-18.25,2.16-6.64,5.68-12.39,10.57-17.23,4.88-4.84,11.09-7.27,18.62-7.27,8.81,0,13.21,3.84,13.21,11.53,0,4.48-1.28,8.61-3.84,12.37-2.56,3.76-5.97,6.79-10.21,9.07-4.25,2.28-8.77,3.58-13.57,3.9-.16,2.4-.24,4-.24,4.8,0,3.92,.68,6.59,2.04,7.99,1.36,1.4,3.56,2.1,6.61,2.1,4.32,0,8.03-1,11.11-3,3.08-2,6.46-5.04,10.15-9.13h4.08c-8.89,14.81-19.9,22.22-33.03,22.22-5.93,0-10.53-1.54-13.81-4.62Zm22.52-29.24c2.68-1.92,4.84-4.36,6.49-7.33,1.64-2.96,2.46-6.08,2.46-9.37s-1-4.92-3-4.92c-2.88,0-5.7,2.52-8.47,7.57-2.76,5.04-4.74,10.77-5.94,17.17,2.96-.16,5.78-1.2,8.47-3.12Z"/><path class="d" d="M247.78,529.02h17.29l-1.56,7.45c2.72-2.4,5.18-4.24,7.39-5.52,2.2-1.28,4.58-1.92,7.15-1.92s4.58,.88,6.07,2.64c1.48,1.76,2.22,3.88,2.22,6.37,0,2.32-.76,4.36-2.28,6.12-1.52,1.76-3.64,2.64-6.37,2.64-1.76,0-2.94-.42-3.54-1.26-.6-.84-1.06-2.06-1.38-3.66-.24-1.04-.48-1.8-.72-2.28s-.68-.72-1.32-.72c-1.68,0-3.1,.34-4.26,1.02-1.16,.68-2.66,1.86-4.5,3.54l-9.61,45.64h-17.29l12.73-60.05Z"/><path class="d" d="M291.92,588.5c-4.58-2.1-8.1-5.03-10.58-8.79-2.48-3.77-3.72-8.13-3.72-13.08,0-4.19,.88-8.01,2.65-11.44,1.76-3.43,4.15-6.15,7.15-8.15s6.31-3,9.94-3c3.34,0,6.15,.84,8.44,2.5,2.29,1.67,3.72,3.98,4.29,6.94-4.96,0-8.92,1.31-11.87,3.93-2.96,2.62-4.43,6.17-4.43,10.65,0,4.1,1.24,7.39,3.72,9.87,2.48,2.48,5.77,3.72,9.87,3.72,5.05,0,9.22-1.69,12.51-5.08,3.29-3.38,4.93-7.65,4.93-12.8,0-4.48-1.24-8.72-3.72-12.73-2.48-4-6.2-8.87-11.15-14.59-5.15-5.91-9.03-10.99-11.65-15.23-2.62-4.24-3.93-8.89-3.93-13.94s1.38-9.41,4.15-13.37c2.76-3.96,6.58-7.08,11.44-9.37,4.86-2.29,10.34-3.43,16.45-3.43,7.72,0,13.89,1.81,18.52,5.43,4.62,3.62,6.94,8.49,6.94,14.59,0,4-1,7.25-3,9.72-2,2.48-4.62,3.72-7.87,3.72-3.62,0-6.53-1.48-8.72-4.43,1.81-1.33,3.24-3.1,4.29-5.29,1.05-2.19,1.57-4.48,1.57-6.86,0-3.05-.91-5.48-2.72-7.29-1.81-1.81-4.29-2.72-7.44-2.72-3.81,0-6.94,1.36-9.37,4.08-2.43,2.72-3.65,6.17-3.65,10.37,0,3.81,1.1,7.36,3.29,10.65,2.19,3.29,5.62,7.51,10.3,12.66,3.81,4.1,6.89,7.63,9.22,10.58,2.33,2.96,4.34,6.36,6.01,10.22,1.67,3.86,2.5,8.03,2.5,12.51,0,6.1-1.69,11.63-5.08,16.59-3.39,4.96-8.01,8.87-13.87,11.73-5.86,2.86-12.37,4.29-19.52,4.29-6.01,0-11.3-1.05-15.87-3.15Z"/><path class="d" d="M356.85,586.19c-2.36-2.4-3.54-6-3.54-10.81,0-2,.32-4.6,.96-7.81l8.17-38.55h17.29l-8.65,40.83c-.24,1.2-.36,2.32-.36,3.36,0,3.28,1.2,4.92,3.6,4.92,2.24,0,4.16-.94,5.76-2.82,1.6-1.88,2.88-4.46,3.84-7.75l8.17-38.55h17.29l-8.65,40.83c-.32,1.2-.48,2.48-.48,3.84,0,1.6,.38,2.74,1.14,3.42,.76,.68,2.02,1.02,3.78,1.02,2.24,0,4.18-.96,5.83-2.88,1.64-1.92,2.94-4.48,3.9-7.69h5.04c-2.96,8.65-6.63,14.51-10.99,17.59-4.37,3.08-8.75,4.62-13.15,4.62-3.44,0-6.19-.96-8.23-2.88-2.04-1.92-3.26-4.76-3.66-8.53-2.72,4.4-5.58,7.41-8.59,9.01-3,1.6-6.07,2.4-9.19,2.4-3.84,0-6.95-1.2-9.31-3.6Z"/><path class="d" d="M418.4,585.77c-2.88-2.68-4.32-6.46-4.32-11.35,0-2.4,.28-4.68,.84-6.85l12.85-60.17,17.77-2.4-5.76,27.02c2.24-1.36,4.08-2.26,5.52-2.7,1.44-.44,2.88-.66,4.32-.66,9.45,0,14.17,6.84,14.17,20.54,0,5.52-1.06,11.43-3.18,17.71-2.12,6.29-5.64,11.67-10.57,16.15-4.92,4.49-11.31,6.73-19.16,6.73-5.45,0-9.61-1.34-12.49-4.02Zm26.18-12.25c2.16-3.08,3.88-6.92,5.16-11.53,1.28-4.6,1.92-9.03,1.92-13.27,0-3.2-.56-5.92-1.68-8.17-1.12-2.24-2.68-3.36-4.68-3.36-1.2,0-2.54,.18-4.02,.54-1.48,.36-2.5,.9-3.06,1.62l-6.61,30.5c-.24,.96-.36,1.88-.36,2.76,0,3.68,2.12,5.52,6.37,5.52,2.48,0,4.8-1.54,6.97-4.62Z"/></g><g><path d="M205.63,614.04h5.77l-12.1,28.54h-5.17l-5.17-12.88-5.17,12.88h-5.17l-12.15-28.54h5.77l9.24,22.71,4.07-10.53-4.95-12.12h5.12l3.25,8.9,3.19-8.9h5.11l-4.9,12.12,4.07,10.53,9.19-22.71Z"/><path d="M215.42,609.09v-6.66h6.05v6.66h-6.05Zm0,33.5v-28.76h6.05v28.76h-6.05Z"/><path d="M238.96,643.14c-2.42,0-4.71-.39-6.88-1.18-2.16-.79-4.02-1.97-5.56-3.55l2.25-4.07c1.65,1.47,3.31,2.53,4.98,3.19,1.67,.66,3.33,.99,4.98,.99s3.06-.31,4.12-.94c1.06-.63,1.6-1.55,1.6-2.78,0-.91-.28-1.58-.83-2.02-.55-.44-1.35-.82-2.39-1.14-1.04-.33-2.3-.69-3.77-1.09-2.05-.62-3.78-1.26-5.17-1.93-1.39-.67-2.44-1.5-3.13-2.48-.7-.98-1.04-2.23-1.04-3.76,0-1.85,.48-3.43,1.43-4.74,.95-1.31,2.28-2.31,3.99-3s3.68-1.04,5.91-1.04c2.09,0,4.02,.32,5.8,.96s3.35,1.64,4.7,3l-2.58,4.02c-1.28-1.17-2.59-2.04-3.93-2.58-1.34-.55-2.78-.83-4.32-.83-.88,0-1.72,.1-2.53,.3-.81,.2-1.48,.56-2.01,1.09-.53,.53-.8,1.26-.8,2.2,0,.76,.22,1.38,.66,1.85,.44,.47,1.1,.87,1.98,1.2,.88,.33,1.96,.69,3.25,1.09,2.24,.65,4.14,1.3,5.72,1.93,1.58,.63,2.8,1.45,3.66,2.45s1.29,2.37,1.29,4.11c0,2.76-1.04,4.91-3.11,6.45-2.07,1.54-4.83,2.31-8.28,2.31Z"/><path d="M265.96,643.14c-2.42,0-4.71-.39-6.88-1.18-2.16-.79-4.02-1.97-5.56-3.55l2.25-4.07c1.65,1.47,3.31,2.53,4.98,3.19,1.67,.66,3.33,.99,4.98,.99s3.06-.31,4.12-.94c1.06-.63,1.6-1.55,1.6-2.78,0-.91-.28-1.58-.83-2.02-.55-.44-1.35-.82-2.39-1.14-1.04-.33-2.3-.69-3.77-1.09-2.05-.62-3.78-1.26-5.17-1.93-1.39-.67-2.44-1.5-3.13-2.48-.7-.98-1.04-2.23-1.04-3.76,0-1.85,.48-3.43,1.43-4.74,.95-1.31,2.28-2.31,3.99-3s3.68-1.04,5.91-1.04c2.09,0,4.02,.32,5.8,.96s3.35,1.64,4.7,3l-2.58,4.02c-1.28-1.17-2.59-2.04-3.93-2.58-1.34-.55-2.78-.83-4.32-.83-.88,0-1.72,.1-2.53,.3-.81,.2-1.48,.56-2.01,1.09-.53,.53-.8,1.26-.8,2.2,0,.76,.22,1.38,.66,1.85,.44,.47,1.1,.87,1.98,1.2,.88,.33,1.96,.69,3.25,1.09,2.24,.65,4.14,1.3,5.72,1.93,1.58,.63,2.8,1.45,3.66,2.45s1.29,2.37,1.29,4.11c0,2.76-1.04,4.91-3.11,6.45-2.07,1.54-4.83,2.31-8.28,2.31Z"/><path d="M295.77,643.14c-2.24,0-4.26-.39-6.08-1.17-1.82-.78-3.38-1.86-4.7-3.22-1.32-1.37-2.34-2.93-3.05-4.7-.71-1.76-1.07-3.65-1.07-5.65,0-2.68,.62-5.14,1.87-7.37,1.25-2.23,2.99-4.03,5.23-5.39,2.24-1.36,4.86-2.04,7.86-2.04s5.6,.68,7.78,2.04c2.18,1.36,3.88,3.15,5.09,5.36,1.21,2.22,1.82,4.59,1.82,7.13,0,.44-.02,.84-.06,1.23s-.07,.7-.11,.95h-23.04c.11,1.67,.58,3.12,1.4,4.37,.83,1.25,1.88,2.23,3.16,2.93,1.28,.71,2.66,1.06,4.12,1.06,1.61,0,3.14-.4,4.59-1.21,1.45-.81,2.43-1.87,2.94-3.19l5.17,1.48c-.62,1.39-1.57,2.65-2.83,3.77-1.27,1.12-2.76,2-4.48,2.64-1.72,.64-3.59,.96-5.61,.96Zm-8.63-16.83h17.38c-.11-1.62-.58-3.05-1.4-4.29-.83-1.24-1.87-2.21-3.14-2.91-1.26-.7-2.67-1.05-4.21-1.05s-2.89,.35-4.15,1.05c-1.27,.7-2.3,1.67-3.11,2.91-.81,1.24-1.27,2.67-1.38,4.29Z"/><path d="M315.52,602.44h6.05v31.95c0,1.47,.22,2.41,.66,2.81,.44,.4,.99,.61,1.65,.61,.73,0,1.42-.07,2.06-.22s1.2-.33,1.68-.55l.88,4.79c-.88,.37-1.92,.68-3.13,.93s-2.29,.38-3.25,.38c-2.05,0-3.67-.58-4.84-1.74-1.17-1.16-1.76-2.77-1.76-4.83v-34.14Z"/><path d="M347.86,641.21c-.51,.26-1.15,.53-1.92,.83-.77,.29-1.64,.55-2.61,.77-.97,.22-1.97,.33-3,.33-1.25,0-2.4-.22-3.46-.66-1.06-.44-1.92-1.14-2.56-2.11s-.96-2.22-.96-3.75v-17.9h-3.79v-4.67h3.79v-9.46h6.05v9.46h6.27v4.67h-6.27v15.97c.07,.98,.39,1.71,.96,2.19,.57,.47,1.27,.71,2.12,.71s1.65-.15,2.42-.44c.77-.29,1.34-.53,1.71-.71l1.26,4.79Z"/><path d="M352.04,609.09v-6.66h6.05v6.66h-6.05Zm0,33.5v-28.76h6.05v28.76h-6.05Z"/><path d="M409.34,642.59h-6.05v-15.93c0-2.64-.44-4.58-1.32-5.82s-2.16-1.85-3.85-1.85-3.25,.62-4.7,1.88c-1.45,1.25-2.47,2.87-3.05,4.87v16.85h-6.05v-15.93c0-2.64-.44-4.58-1.32-5.82s-2.15-1.85-3.79-1.85-3.25,.61-4.7,1.84-2.48,2.83-3.11,4.81v16.94h-6.05v-28.54h5.5v5.77c1.14-2,2.63-3.53,4.48-4.6s3.97-1.61,6.35-1.61,4.26,.62,5.64,1.85c1.38,1.23,2.23,2.78,2.56,4.63,1.25-2.11,2.78-3.71,4.59-4.82,1.81-1.11,3.9-1.66,6.24-1.66,1.69,0,3.1,.31,4.24,.93,1.14,.62,2.02,1.46,2.64,2.53,.62,1.07,1.07,2.31,1.35,3.71,.27,1.4,.41,2.88,.41,4.44v17.38Z"/><path d="M429.36,643.14c-2.24,0-4.26-.39-6.08-1.17-1.82-.78-3.38-1.86-4.7-3.22-1.32-1.37-2.34-2.93-3.05-4.7-.71-1.76-1.07-3.65-1.07-5.65,0-2.68,.62-5.14,1.87-7.37,1.25-2.23,2.99-4.03,5.23-5.39,2.24-1.36,4.86-2.04,7.86-2.04s5.6,.68,7.78,2.04c2.18,1.36,3.88,3.15,5.09,5.36,1.21,2.22,1.82,4.59,1.82,7.13,0,.44-.02,.84-.06,1.23s-.07,.7-.11,.95h-23.04c.11,1.67,.58,3.12,1.4,4.37,.83,1.25,1.88,2.23,3.16,2.93,1.28,.71,2.66,1.06,4.12,1.06,1.61,0,3.14-.4,4.59-1.21,1.45-.81,2.43-1.87,2.94-3.19l5.17,1.48c-.62,1.39-1.57,2.65-2.83,3.77-1.27,1.12-2.76,2-4.48,2.64-1.72,.64-3.59,.96-5.61,.96Zm-8.63-16.83h17.38c-.11-1.62-.58-3.05-1.4-4.29-.83-1.24-1.87-2.21-3.14-2.91-1.26-.7-2.67-1.05-4.21-1.05s-2.89,.35-4.15,1.05c-1.27,.7-2.3,1.67-3.11,2.91-.81,1.24-1.27,2.67-1.38,4.29Z"/><path d="M465.22,619.05c-2.35,.04-4.43,.57-6.24,1.59-1.82,1.03-3.11,2.48-3.88,4.35v17.6h-6.05v-28.54h5.61v6.21c.99-1.98,2.29-3.57,3.9-4.76,1.61-1.19,3.32-1.84,5.12-1.95h.91c.24,0,.45,.02,.63,.05v5.45Z"/></g></g></g></svg>